<svg width="29" height="29" viewBox="0 0 29 29" fill="none" xmlns="http://www.w3.org/2000/svg">
<path d="M14.3594 2.63733C17.5292 2.63733 17.9247 2.649 19.1684 2.70733C20.4109 2.76566 21.2567 2.9605 22.001 3.24983C22.771 3.54616 23.4197 3.9475 24.0684 4.595C24.6616 5.17821 25.1207 5.88368 25.4135 6.66233C25.7017 7.4055 25.8977 8.2525 25.956 9.495C26.0109 10.7387 26.026 11.1342 26.026 14.304C26.026 17.4738 26.0144 17.8693 25.956 19.113C25.8977 20.3555 25.7017 21.2013 25.4135 21.9457C25.1215 22.7247 24.6624 23.4304 24.0684 24.013C23.485 24.606 22.7796 25.065 22.001 25.3582C21.2579 25.6463 20.4109 25.8423 19.1684 25.9007C17.9247 25.9555 17.5292 25.9707 14.3594 25.9707C11.1895 25.9707 10.794 25.959 9.55038 25.9007C8.30788 25.8423 7.46204 25.6463 6.71771 25.3582C5.93876 25.0659 5.23316 24.6068 4.65038 24.013C4.05702 23.4299 3.59796 22.7244 3.30521 21.9457C3.01588 21.2025 2.82104 20.3555 2.76271 19.113C2.70788 17.8693 2.69271 17.4738 2.69271 14.304C2.69271 11.1342 2.70438 10.7387 2.76271 9.495C2.82104 8.25133 3.01588 7.40666 3.30521 6.66233C3.59715 5.88321 4.05632 5.17754 4.65038 4.595C5.23333 4.00143 5.93888 3.54235 6.71771 3.24983C7.46204 2.9605 8.30671 2.76566 9.55038 2.70733C10.794 2.6525 11.1895 2.63733 14.3594 2.63733ZM14.3594 8.47066C12.8123 8.47066 11.3286 9.08524 10.2346 10.1792C9.14063 11.2732 8.52604 12.7569 8.52604 14.304C8.52604 15.8511 9.14063 17.3348 10.2346 18.4288C11.3286 19.5227 12.8123 20.1373 14.3594 20.1373C15.9065 20.1373 17.3902 19.5227 18.4842 18.4288C19.5781 17.3348 20.1927 15.8511 20.1927 14.304C20.1927 12.7569 19.5781 11.2732 18.4842 10.1792C17.3902 9.08524 15.9065 8.47066 14.3594 8.47066ZM21.9427 8.179C21.9427 7.79222 21.7891 7.42129 21.5156 7.1478C21.2421 6.87431 20.8712 6.72066 20.4844 6.72066C20.0976 6.72066 19.7267 6.87431 19.4532 7.1478C19.1797 7.42129 19.026 7.79222 19.026 8.179C19.026 8.56577 19.1797 8.9367 19.4532 9.21019C19.7267 9.48368 20.0976 9.63733 20.4844 9.63733C20.8712 9.63733 21.2421 9.48368 21.5156 9.21019C21.7891 8.9367 21.9427 8.56577 21.9427 8.179ZM14.3594 10.804C15.2876 10.804 16.1779 11.1727 16.8343 11.8291C17.4906 12.4855 17.8594 13.3757 17.8594 14.304C17.8594 15.2323 17.4906 16.1225 16.8343 16.7789C16.1779 17.4352 15.2876 17.804 14.3594 17.804C13.4311 17.804 12.5409 17.4352 11.8845 16.7789C11.2281 16.1225 10.8594 15.2323 10.8594 14.304C10.8594 13.3757 11.2281 12.4855 11.8845 11.8291C12.5409 11.1727 13.4311 10.804 14.3594 10.804Z" fill="#888888"/>
</svg>
