<svg width="193" height="33" viewBox="0 0 193 33" fill="none" xmlns="http://www.w3.org/2000/svg">
<path d="M0.564 0.799998H5.172V18.692L18.708 0.799998H23.064V26H18.456V8.144L4.92 26H0.564V0.799998ZM29.6256 6.776H34.1256V14.588H43.8096V6.776H48.3096V26H43.8096V18.404H34.1256V26H29.6256V6.776ZM69.5684 10.592H62.8364V26H58.3364V10.592H51.5684V6.776H69.5684V10.592ZM89.9888 16.496C89.9888 16.808 89.9648 17.252 89.9168 17.828H74.8328C75.0968 19.244 75.7808 20.372 76.8848 21.212C78.0128 22.028 79.4048 22.436 81.0608 22.436C83.1728 22.436 84.9128 21.74 86.2808 20.348L88.6928 23.12C87.8288 24.152 86.7368 24.932 85.4168 25.46C84.0968 25.988 82.6088 26.252 80.9528 26.252C78.8408 26.252 76.9808 25.832 75.3728 24.992C73.7648 24.152 72.5168 22.988 71.6288 21.5C70.7648 19.988 70.3328 18.284 70.3328 16.388C70.3328 14.516 70.7528 12.836 71.5928 11.348C72.4568 9.836 73.6448 8.66 75.1568 7.82C76.6688 6.98 78.3728 6.56 80.2688 6.56C82.1408 6.56 83.8088 6.98 85.2728 7.82C86.7608 8.636 87.9128 9.8 88.7288 11.312C89.5688 12.8 89.9888 14.528 89.9888 16.496ZM80.2688 10.16C78.8288 10.16 77.6048 10.592 76.5968 11.456C75.6128 12.296 75.0128 13.424 74.7968 14.84H85.7048C85.5128 13.448 84.9248 12.32 83.9408 11.456C82.9568 10.592 81.7328 10.16 80.2688 10.16ZM105.567 6.56C107.439 6.56 109.107 6.968 110.571 7.784C112.059 8.6 113.223 9.752 114.063 11.24C114.903 12.728 115.323 14.444 115.323 16.388C115.323 18.332 114.903 20.06 114.063 21.572C113.223 23.06 112.059 24.212 110.571 25.028C109.107 25.844 107.439 26.252 105.567 26.252C102.975 26.252 100.923 25.388 99.4107 23.66V32.984H94.9107V6.776H99.1947V9.296C99.9387 8.384 100.851 7.7 101.931 7.244C103.035 6.788 104.247 6.56 105.567 6.56ZM105.063 22.4C106.719 22.4 108.075 21.848 109.131 20.744C110.211 19.64 110.751 18.188 110.751 16.388C110.751 14.588 110.211 13.136 109.131 12.032C108.075 10.928 106.719 10.376 105.063 10.376C103.983 10.376 103.011 10.628 102.147 11.132C101.283 11.612 100.599 12.308 100.095 13.22C99.5907 14.132 99.3387 15.188 99.3387 16.388C99.3387 17.588 99.5907 18.644 100.095 19.556C100.599 20.468 101.283 21.176 102.147 21.68C103.011 22.16 103.983 22.4 105.063 22.4ZM129.449 13.112C131.897 13.112 133.769 13.664 135.065 14.768C136.385 15.872 137.045 17.432 137.045 19.448C137.045 21.56 136.325 23.192 134.885 24.344C133.445 25.496 131.417 26.06 128.801 26.036L119.801 26V6.776H124.301V13.076L129.449 13.112ZM128.405 22.724C129.725 22.748 130.733 22.472 131.429 21.896C132.125 21.32 132.473 20.48 132.473 19.376C132.473 18.296 132.137 17.504 131.465 17C130.793 16.496 129.773 16.232 128.405 16.208L124.301 16.172V22.688L128.405 22.724ZM159.001 16.496C159.001 16.808 158.977 17.252 158.929 17.828H143.845C144.109 19.244 144.793 20.372 145.897 21.212C147.025 22.028 148.417 22.436 150.073 22.436C152.185 22.436 153.925 21.74 155.293 20.348L157.705 23.12C156.841 24.152 155.749 24.932 154.429 25.46C153.109 25.988 151.621 26.252 149.965 26.252C147.853 26.252 145.993 25.832 144.385 24.992C142.777 24.152 141.529 22.988 140.641 21.5C139.777 19.988 139.345 18.284 139.345 16.388C139.345 14.516 139.765 12.836 140.605 11.348C141.469 9.836 142.657 8.66 144.169 7.82C145.681 6.98 147.385 6.56 149.281 6.56C151.153 6.56 152.821 6.98 154.285 7.82C155.773 8.636 156.925 9.8 157.741 11.312C158.581 12.8 159.001 14.528 159.001 16.496ZM149.281 10.16C147.841 10.16 146.617 10.592 145.609 11.456C144.625 12.296 144.025 13.424 143.809 14.84H154.717C154.525 13.448 153.937 12.32 152.953 11.456C151.969 10.592 150.745 10.16 149.281 10.16ZM174.578 6.56C176.45 6.56 178.118 6.968 179.582 7.784C181.07 8.6 182.234 9.752 183.074 11.24C183.914 12.728 184.334 14.444 184.334 16.388C184.334 18.332 183.914 20.06 183.074 21.572C182.234 23.06 181.07 24.212 179.582 25.028C178.118 25.844 176.45 26.252 174.578 26.252C171.986 26.252 169.934 25.388 168.422 23.66V32.984H163.922V6.776H168.206V9.296C168.95 8.384 169.862 7.7 170.942 7.244C172.046 6.788 173.258 6.56 174.578 6.56ZM174.074 22.4C175.73 22.4 177.086 21.848 178.142 20.744C179.222 19.64 179.762 18.188 179.762 16.388C179.762 14.588 179.222 13.136 178.142 12.032C177.086 10.928 175.73 10.376 174.074 10.376C172.994 10.376 172.022 10.628 171.158 11.132C170.294 11.612 169.61 12.308 169.106 13.22C168.602 14.132 168.35 15.188 168.35 16.388C168.35 17.588 168.602 18.644 169.106 19.556C169.61 20.468 170.294 21.176 171.158 21.68C172.022 22.16 172.994 22.4 174.074 22.4ZM189.83 26.252C189.014 26.252 188.318 25.976 187.742 25.424C187.166 24.848 186.878 24.128 186.878 23.264C186.878 22.376 187.154 21.656 187.706 21.104C188.282 20.552 188.99 20.276 189.83 20.276C190.67 20.276 191.366 20.552 191.918 21.104C192.494 21.656 192.782 22.376 192.782 23.264C192.782 24.128 192.494 24.848 191.918 25.424C191.342 25.976 190.646 26.252 189.83 26.252Z" fill="black"/>
</svg>
