<svg width="25" height="20" viewBox="0 0 25 20" fill="none" xmlns="http://www.w3.org/2000/svg">
<path d="M24.5117 2.86128C23.6211 3.25525 22.6765 3.514 21.7094 3.62894C22.7288 3.01928 23.4917 2.05979 23.8561 0.929276C22.8994 1.49861 21.8506 1.89761 20.7574 2.11344C20.0231 1.32779 19.0498 0.806733 17.9888 0.631292C16.9279 0.45585 15.8387 0.635849 14.8905 1.1433C13.9424 1.65076 13.1885 2.45724 12.746 3.43737C12.3035 4.4175 12.1973 5.51635 12.4437 6.56311C10.5037 6.46587 8.60579 5.96172 6.87324 5.08338C5.14068 4.20505 3.61222 2.97217 2.38707 1.46478C1.95341 2.20964 1.72551 3.05637 1.72673 3.91828C1.72673 5.60994 2.58773 7.10444 3.89673 7.97944C3.12208 7.95506 2.36447 7.74585 1.68707 7.36928V7.42994C1.6873 8.55659 2.07716 9.6485 2.79056 10.5205C3.50395 11.3925 4.49696 11.991 5.60123 12.2144C4.88212 12.4093 4.12809 12.438 3.39623 12.2984C3.70758 13.2682 4.31441 14.1163 5.13176 14.7241C5.94911 15.3318 6.93605 15.6687 7.9544 15.6876C6.94229 16.4825 5.78344 17.0701 4.54409 17.4168C3.30475 17.7635 2.00922 17.8626 0.731567 17.7083C2.96188 19.1426 5.55818 19.9041 8.2099 19.9016C17.1851 19.9016 22.0932 12.4664 22.0932 6.01828C22.0932 5.80828 22.0874 5.59594 22.0781 5.38828C23.0334 4.69781 23.8579 3.84247 24.5129 2.86244L24.5117 2.86128Z" fill="#888888"/>
</svg>
